<svg xmlns="http://www.w3.org/2000/svg" viewBox="0 0 24 24" width="24" height="24" fill="#FFFFFF">
  <path d="M12 2C10.34 2 9 3.34 9 5s1.34 3 3 3 3-1.34 3-3-1.34-3-3-3zM12 8c-2.21 0-4-1.79-4-4s1.79-4 4-4 4 1.79 4 4-1.79 4-4 4zm0 2c1.5 0 2.8.62 3.73 1.61C15.87 12.07 14.5 13 13 13H11c-1.5 0-2.87-.93-3.73-1.39C9.2 10.62 10.5 10 12 10zm6 3c-1.5 0-2.87.93-3.73 1.39C14.87 15.38 13.5 16 12 16c-1.5 0-2.87-.62-3.73-1.61C8.13 14.07 9.5 13 11 13h2c1.5 0 2.87.93 3.73 1.39C18.8 14.38 18 15 18 16zM4 16c1.5 0 2.87-.93 3.73-1.39C9.87 14.62 10 13.5 10 13H8c0 .5-.13 1.62-.27 1.61-.86-.46-1.67-.78-2.73-.78C3.5 14.83 2 15.83 2 17s1.5 2.17 3 2.17z"/>
</svg>
