<svg xmlns="http://www.w3.org/2000/svg" viewBox="0 0 24 24" width="24" height="24" fill="#000000">
  <path d="M12 2C7.58 2 4 5.58 4 10c0 1.4.45 2.69 1.2 3.73C3.19 14.7 2 16.99 2 19c0 1.1.89 2 1.99 2H6c.31 0 .6-.1.87-.29.58-.33 1.01-.83 1.33-1.43.43-.75.64-1.58.64-2.47 0-1.79-.75-3.4-2.02-4.59C7.97 11.88 9.93 12 12 12c2.07 0 4.03-.12 5.01-.29-1.27 1.19-2.02 2.8-2.02 4.59 0 .89.22 1.72.64 2.47.32.6.75 1.1 1.33 1.43.27.19.56.29.87.29h2.01c1.1 0 1.99-.89 1.99-2 0-2.01-1.19-4.3-3.2-5.27C19.55 12.69 20 11.4 20 10c0-4.42-3.58-8-8-8zM8 18c0 .55-.45 1-1 1H5c-.55 0-1-.45-1-1v-2c0-.55.45-1 1-1h2c.55 0 1 .45 1 1v2zm10 0c0 .55-.45 1-1 1h-2c-.55 0-1-.45-1-1v-2c0-.55.45-1 1-1h2c.55 0 1 .45 1 1v2z"/>
</svg>
